<svg width="1016" height="558" viewBox="0 0 1016 558" fill="none" xmlns="http://www.w3.org/2000/svg">
<rect width="1016" height="558" fill="white"/>
<g clip-path="url(#clip0_882_42)">
<path d="M57.6905 253.422C57.7187 256.239 57.8454 258.93 58.268 261.734C58.3666 262.396 59.1976 262.495 59.5779 262.03C63.8455 256.803 66.916 245.222 66.1132 238.515C65.4934 233.246 61.3807 234.134 58.5356 237.543C52.9017 244.292 53.9721 257.141 54.4088 265.172C54.8736 273.766 55.7609 287.136 62.3948 293.646C62.6483 293.899 63.1272 294.026 63.423 293.73C71.5499 285.249 75.3105 271.484 78.1274 260.466C80.6345 250.688 84.0008 234.796 75.395 226.906C75.0147 226.568 74.3527 226.554 74.1555 227.117C67.6343 246.476 72.0288 270.244 81.0711 288.109C83.7613 293.434 91.5502 304.719 95.5502 294.406C100.184 282.431 97.2545 265.82 95.2545 253.647C93.3812 242.263 90.3952 224.596 79.7754 217.762C79.4373 217.551 79.0007 217.607 78.7613 217.946C69.9583 230.499 70.3949 249.378 70.0428 263.988C69.5921 282.713 71.0428 301.423 70.7048 320.147C70.6062 325.895 71.0287 331.629 70.9161 337.392C70.8456 340.999 70.2963 344.45 69.3667 347.944C67.6202 354.594 67.254 348.24 66.7752 346C64.5639 335.772 65.8737 324.557 67.4512 314.328C68.9301 304.734 71.4231 294.716 76.2542 286.221C79.6063 280.331 82.7191 289.898 84.3247 293.223C87.2966 299.394 89.2544 306.1 91.4938 312.567C91.7333 313.229 95.2263 318.456 93.6488 314.596C93.015 313.046 92.3953 311.482 91.7755 309.918C90.2685 306.114 88.7473 302.324 87.198 298.534C83.381 289.193 79.3106 279.965 74.564 271.047C70.2963 263.03 62.8314 247.983 51.6341 251.928C37.8311 256.789 48.2538 287.503 50.8031 295.843C55.0003 309.594 64.5779 332.292 81.5359 333.546C96.3812 334.644 105.043 312.821 109.607 302.127C111.649 297.351 113.396 292.448 115.114 287.545C115.325 286.939 116.1 281.219 116.621 283.952C117.269 287.32 117.875 290.701 118.494 294.068C121.255 309.369 123.635 324.74 125.973 340.111C128.818 358.92 132.607 378.25 132.438 397.354C132.41 400.525 132.128 403.737 131.17 406.766C129.058 413.402 122.537 405.977 120.452 403.596C113.536 395.678 109.241 385.393 105.621 375.643C97.0855 352.678 93.3953 327.318 93.6911 302.888C93.9164 283.586 99.9588 265.679 104.367 247.096C107.339 234.556 111.17 218.819 105.156 206.59C100.226 196.587 86.3952 195.798 77.719 200.63C63.8878 208.323 51.3806 225.539 48.6059 241.108C46.3101 253.985 49.1693 270.103 65.3244 267.947C79.7049 266.031 88.2966 254.802 96.8038 244.419C100.043 240.46 103.424 236.642 107.311 233.302C114.691 226.962 119.734 232.232 123.973 238.854C129.466 247.448 133.748 257 137.593 266.426C137.79 266.891 138.354 266.919 138.72 266.665C153.171 256.817 158.143 236.318 162.453 220.312C167.213 202.673 170.889 184.639 172.72 166.464C173.692 156.87 176.523 135.92 167.298 128.847C157.537 121.352 145.537 135.736 139.945 142.33C134.368 148.895 129.621 156.264 125.593 163.872C121.663 171.311 126.903 175.566 131.452 181.962C140.748 195.051 142.466 211.479 136.255 226.103C131.987 236.148 124.114 245.405 117.297 253.872C115.001 256.732 108.367 265.538 103.663 261.128C99.9306 257.62 100.057 248.631 99.6066 243.728C98.9728 236.881 98.7193 207.153 111.734 212.465C119.1 215.48 125.015 223.708 129.903 229.639C135.734 236.712 141.016 244.264 146.058 251.9C160.241 273.372 164.396 299.732 157.565 324.655C153.706 338.702 144.058 349.48 129.551 352.537C109.691 356.722 108.142 333.447 104.973 320.048C104.888 319.668 104.536 319.386 104.128 319.457C92.522 321.64 84.6627 337.519 78.8739 346.366C71.0006 358.398 57.7891 369.177 55.9581 384.111C52.6341 411.204 93.184 406.428 107.691 401.652C119.1 397.89 127.818 389.718 123.255 376.996C120.1 368.233 115.424 360.061 111.973 351.382C106.762 338.251 102.353 324.796 98.3953 311.229C95.0009 299.563 92.2122 287.742 89.7896 275.837C87.7614 265.904 85.4797 254.76 88.0572 244.729C90.7333 234.289 104.86 230.259 112.635 224.271C112.846 224.116 112.917 223.835 112.874 223.595C111.889 217.002 108.888 212.761 103.339 209.154C95.3953 203.955 83.4796 199.968 87.1698 187.837C91.6347 173.185 116.931 165.859 129.987 162.9C187.298 149.882 157.636 255.197 151.875 278.782C148.523 292.504 144.988 306.185 141.354 319.837C138.114 332.024 135.931 344.507 130.875 356.13C127.452 364.02 125.959 359.497 123.466 354.284C121.396 349.973 120.184 345.268 119.044 340.646C116.466 330.249 115.353 319.457 114.536 308.805C112.776 285.868 114.212 264.016 122.325 242.249C124.621 236.078 146.41 196.685 151.988 218.58C155.298 231.598 152.692 246.955 151.143 260.057C149.495 274.034 147.128 287.911 144.565 301.733C143.044 309.904 133.593 356.13 121.325 341.802C116.043 335.631 114.931 325.233 113.72 317.526C112.297 308.58 111.677 299.45 111.677 290.405C111.677 265.284 121.706 243.08 137.438 223.933C144.213 215.691 152.129 208.689 159.706 201.236C164.889 196.136 170.861 192.022 177.566 189.232C183.425 186.795 189.622 190.19 195.298 188.176C205.989 184.371 205.58 170.846 203.369 161.759C200.312 149.276 192.256 137.272 181.904 129.706C172.664 122.958 161.805 123.225 153.565 131.228C138.283 146.064 133.438 167 137.1 187.429C141.002 209.267 153.748 228.963 165.086 247.575C179.847 271.808 188.707 296.59 184.749 325.388C183.735 332.799 181.411 340.012 179.129 347.113C177.101 353.439 172.298 366.993 165.298 353.665C160.946 345.394 160.129 334.912 159.354 325.768C157.664 305.861 158.255 283.854 163.763 264.524C166.734 254.098 171.298 243.982 176.58 234.556C179.213 229.851 182.34 225.427 186.157 221.623C190.876 216.903 191.411 218.622 192.777 223.736C197.129 240.023 198.115 257.775 198.228 274.541C198.27 282.121 197.974 289.898 196.2 297.295C193.369 309.115 185.073 301.085 179.721 295.407C165.791 280.627 153.354 263.791 156.495 242.432C159.692 220.749 175.692 199.348 187.481 181.187C191.523 174.96 200.425 161.97 205.411 174.072C208.566 181.709 208.749 190.951 209.228 199.066C211.51 236.909 212.341 276.274 207.312 313.863C204.566 334.419 199.636 356.285 187.087 373.234C184.439 376.813 181.242 379.842 177.735 382.533C175.735 384.069 174.101 375.686 173.805 374.319C171.706 364.527 172.312 354.073 172.875 344.155C174.861 309.411 180.721 271.413 195.101 239.544C197.453 234.331 208.031 213.662 212.115 227.272C214.932 236.642 214.566 247.236 214.665 256.887C214.862 276.767 214.594 297.421 220.13 316.667C220.341 317.414 221.482 317.47 221.566 316.611C223.299 298.239 223.707 279.824 222.13 261.424C222.087 260.945 221.496 260.706 221.101 260.889C213.918 264.397 210.158 274.992 207.228 281.783C201.186 295.731 196.876 310.581 193.524 325.388C190.228 339.97 187.495 355.017 188.03 370.022C188.256 376.418 189.129 385.914 195.89 388.929C210.2 395.283 214.101 345.732 214.89 339.787C217.158 322.429 218.735 304.987 220.679 287.601C222.144 274.583 223.073 260.663 227.44 248.223C226.932 249.688 229.933 254.647 230.552 256.394C232.58 261.988 233.834 267.891 235.031 273.71C237.299 284.685 238.665 295.858 239.665 307.016C240.13 312.215 240.397 317.442 240.524 322.655C240.552 323.796 241.919 328.023 241.383 325.261C240.595 321.246 240.158 317.174 239.721 313.117C238.088 297.858 238.369 282.374 238.482 267.046C238.566 255.38 237.947 243.587 239.088 231.964C239.313 229.682 241.426 214.86 245.003 221.341C248.031 226.836 249.369 233.204 250.51 239.304C254.806 262.241 251.989 286.305 259.257 308.721C259.398 309.158 260.074 309.27 260.384 308.96C264.834 304.536 266.187 305.79 268.694 311.299C271.187 316.766 271.511 323.261 271.468 329.136C271.398 339.66 268.511 350.213 264.299 359.793C261.581 365.964 251.13 383.378 244.524 371.389C239.834 362.879 239.496 351.298 238.778 341.844C237.679 327.276 237.792 312.595 238.13 297.999C238.609 277.471 239.031 256.479 242.609 236.205C243.989 228.371 245.721 220.059 249.651 213.057C257.341 199.348 264.496 225.103 264.961 230.4C266.525 248.209 260.82 268.356 268.313 285.277C268.581 285.883 269.412 285.77 269.651 285.22C275.468 271.61 276.792 256.606 279.06 242.108C280.285 234.289 281.877 226.554 284.68 219.143C286.877 213.31 285.708 225.624 285.736 228.329C285.807 234.12 285.539 239.924 285.257 245.715C283.314 283.797 274.961 321.739 280.159 359.92C280.257 360.61 281.37 360.751 281.553 360.047C288.229 334.63 291.525 308.566 294.131 282.459C295.525 268.525 296.68 254.563 297.976 240.615C298.624 233.753 299.314 226.892 300.074 220.045C300.722 214.071 303.736 204.843 302.286 199.151C308.483 223.313 305.018 249.801 305.455 274.47C305.99 303.959 308.821 333.729 314.694 362.625C314.807 363.146 315.455 363.428 315.877 363.048C327.244 352.89 331.272 337.378 334.159 322.951C338.174 302.987 339.258 282.558 342.624 262.481C344.146 253.45 346.258 244.503 349.85 236.05C352.864 228.935 353.484 239.854 353.85 242.855C354.61 249.068 354.005 255.436 353.23 261.621C350.723 281.642 343.469 303.184 332.624 320.288C326.906 329.291 318.765 337.941 309.187 342.774C295.877 349.48 291.581 333.996 290.497 324.472C288.764 309.186 291.173 293.167 293.384 278.035C295.736 262.086 299.328 246.236 304.018 230.823C307.638 218.889 313.694 195.741 327.751 192.036C342.117 188.246 346.089 216.452 347.808 225.159C350.512 238.797 351.54 253.506 357.216 266.355C357.413 266.82 358.202 266.947 358.47 266.454C360.892 262.058 362.216 257.493 363.413 252.618C364.174 249.519 365.864 254.337 366.005 254.633C367.259 257.352 367.963 260.297 368.639 263.185C370.878 272.625 371.301 282.543 371.977 292.18C373.104 308.059 372.428 329.615 383.935 342.21C384.273 342.577 385.019 342.548 385.174 341.999C388.442 330.051 388.357 317.019 387.794 304.734C387.174 291.222 386.414 276.57 381.174 263.904C380.991 263.453 380.4 263.397 380.047 263.664C371.075 270.54 372.794 286.728 374.005 296.435C375.174 305.847 378.569 323.951 388.907 328.107C399.189 332.235 406.273 317.78 410.33 310.82C414.316 303.987 417.879 296.914 422.02 290.18C423.823 287.249 425.809 284.417 428.273 282.022C433.288 277.147 436.048 283.826 437.738 287.77C441.161 295.787 443.612 304.269 446.006 312.637C446.894 315.765 447.682 318.893 448.767 321.964C451.753 330.488 438.795 333.757 433.245 333.898C404.865 334.616 409.499 297.929 412.597 279.063C414.287 268.736 417.09 258.719 421.175 249.082C423.161 244.391 427.006 235.05 433.485 235.106C439.175 235.148 443.077 245.236 445.034 249.336C448.527 256.662 450.598 264.453 453.077 272.16C454.063 275.203 456.218 286.362 460.133 287.432C461.795 287.897 464.528 288.898 465.654 286.826C469.232 280.261 472.443 273.653 476.908 267.595C485.077 256.507 492.021 271.23 493.697 278.049C495.19 284.178 492.922 290.602 490.542 296.153C486.866 304.719 481.035 312.187 477.274 320.739C477.176 320.95 477.232 321.288 477.401 321.457C487.866 331.418 497.458 316.667 503.289 308.707C505.782 305.297 508.246 301.845 511.331 298.929C518.458 292.223 521.275 300.62 523.331 305.762C525.388 310.919 529.458 317.822 535.838 316.526C544.022 314.864 549.698 295.801 560.571 302.127C570.149 307.706 581.966 310.961 592.501 314.187C608.572 319.118 622.234 316.709 638.375 313.99C670.7 308.552 704.123 308.848 736.771 308.453C816.829 307.495 896.943 308.777 977 309.834C977.93 309.848 978.07 308.397 977.141 308.397C891.858 307.27 806.504 305.748 721.222 307.241C692.207 307.749 662.629 307.988 633.995 313.3C620.643 315.779 609.234 317.104 595.868 313.638C583.896 310.524 570.529 306.241 559.811 300C554.951 297.168 549.163 302.691 545.979 305.734C541.881 309.665 535.655 320.175 528.359 311.496C524.613 307.044 523.782 301.352 521.106 296.379C515.711 286.376 500.387 310.256 498.289 313.018C495.317 316.921 492.077 320.71 487.655 322.979C485.95 323.092 484.232 323.204 482.528 323.317C478.908 320.401 478.781 317.329 482.148 314.117C483.486 311.623 484.993 309.214 486.429 306.776C490.95 299.168 496.613 289.785 495.486 280.515C494.81 275.048 492.091 263.706 485.767 261.833C480.57 260.297 477.316 264.622 474.5 268.44C472.232 271.512 470.006 274.978 468.246 278.359C467.612 279.571 463.218 290.715 459.288 284.093C458.443 282.67 457.865 281.036 457.246 279.5C454.232 272.061 452.415 264.214 449.753 256.662C447.274 249.646 439.738 228.033 428.583 235.247C422.287 239.333 418.963 250.111 416.696 256.577C413.583 265.425 411.78 274.795 410.414 284.037C408.428 297.478 405.766 320.71 417.372 330.967C421.724 334.814 430.09 335.729 435.527 335.222C443.048 334.518 446.626 332.235 450.33 325.712C452.358 322.119 448.457 315.737 447.499 312.313C445.288 304.424 442.781 296.59 439.865 288.94C436.682 280.599 432.964 274.625 425.499 282.839C415.175 294.195 410.808 310.101 401.132 322.049C385.766 340.999 376.526 304.466 375.245 294.153C374.259 286.277 374.301 277.683 377.061 270.145C379.118 264.524 380.385 264.932 381.949 270.427C383.315 275.189 384.047 280.134 384.738 285.023C386.245 295.703 386.681 306.537 386.569 317.315C386.512 321.88 386.231 326.445 385.766 330.995C385.301 335.588 385.85 343.788 381.414 336.166C373.343 322.317 374.245 302.55 373.118 287.094C372.202 274.414 371.906 259.099 364.146 248.378C363.85 247.969 363.033 248.082 362.906 248.589C362.146 251.801 361.385 254.985 360.498 258.17C360.118 259.536 358.977 266.877 357.357 262.734C355.751 258.606 354.836 254.168 353.906 249.843C351.808 240.037 350.385 230.104 348.357 220.284C346.512 211.352 343.441 192.599 331.99 190.571C322.342 188.866 315.849 198.982 312.089 206.35C304.68 220.848 300.3 236.909 296.75 252.745C293.877 265.552 291.75 278.429 290.215 291.462C288.497 306.086 286.44 323.063 291.948 337.138C297.441 351.185 311.737 344.126 319.99 337.082C333.103 325.909 340.554 310.214 346.371 294.378C353.413 275.245 360.329 250.336 352.329 230.513C352.132 230.034 351.343 229.935 351.075 230.414C330.61 267.609 343.864 315.357 322.765 352.411C321.849 354.003 320.765 355.482 319.666 356.961C315.962 361.935 315.737 360.512 314.666 354.933C313.004 346.268 311.793 337.505 310.722 328.755C308.525 310.806 307.413 292.645 306.891 274.569C306.159 248.702 309.596 221.848 303.089 196.474C302.891 195.685 301.779 195.699 301.652 196.53C294.257 246.49 293.919 297.379 283.257 346.874C282.553 350.044 281.807 353.2 281.004 356.341C281.06 356.13 280.468 350.128 280.426 349.706C279.708 341.9 279.736 334.025 279.919 326.191C280.215 313.412 281.539 300.648 282.835 287.94C285.342 263.509 288.173 239.093 286.652 214.508C286.595 213.705 285.539 213.817 285.257 214.381C275.173 234.683 277.159 258.789 270.116 280.092C267.722 287.32 266.905 275.175 266.609 272.864C265.891 267.215 266.102 261.41 266.215 255.732C266.44 245.687 267.116 235.641 265.877 225.638C265.116 219.495 258.637 201.574 250.116 209.915C241.679 218.199 240.679 236.923 239.341 247.927C236.538 270.878 236.341 294.59 236.454 317.667C236.51 330.784 236.947 344.014 238.947 356.99C239.89 363.104 241.172 372.727 246.947 376.446C254.271 381.152 262.539 366.669 264.665 362.259C272.835 345.282 278.497 319.499 265.525 303.423C265.299 303.127 264.778 303.057 264.496 303.339C260.961 306.861 259.863 306.354 258.623 301.38C257.581 297.196 257.032 292.899 256.482 288.63C255.299 279.373 254.919 270.018 254.285 260.72C253.271 245.983 252.243 229.837 244.102 217.044C243.806 216.579 243.214 216.48 242.848 216.945C233.369 228.836 237.116 249.561 237.017 263.664C236.876 285.234 236.313 307.086 240.468 328.361C240.623 329.136 241.89 329.15 241.905 328.304C242.172 314.201 240.665 300.07 238.623 286.136C236.735 273.217 234.721 258.113 227.679 246.8C227.355 246.278 226.594 246.222 226.341 246.856C222.144 257.747 221.242 270.117 219.862 281.599C217.777 298.873 216.214 316.216 214.158 333.489C212.383 348.297 210.721 363.64 205.918 377.827C204.735 381.321 202.791 387.055 198.636 387.915C193.016 389.084 190.777 380.307 190.087 376.573C187.467 362.597 190.552 347.071 193.242 333.334C196.453 316.991 201.115 300.803 207.27 285.333C209.552 279.599 212.158 273.935 215.468 268.708C216.637 266.848 217.989 265.101 219.58 263.594C221.538 261.734 220.721 262.298 220.961 265.045C221.454 270.765 221.594 276.513 221.679 282.248C221.777 289.222 221.51 296.182 221.144 303.142C220.961 306.495 220.679 309.834 220.411 313.187C220.228 315.455 219.538 308.171 219.538 308.129C217.003 295.815 216.439 282.797 216.172 270.258C215.862 255.436 219.679 232.218 210.059 219.58C209.876 219.326 209.467 219.256 209.2 219.397C197.495 225.497 192.284 241.291 188.228 252.872C183.143 267.398 179.861 282.543 177.199 297.675C174.354 313.793 172.213 330.066 171.284 346.423C170.608 358.229 169.354 373.953 176.016 384.435C176.284 384.858 176.72 384.97 177.143 384.674C207.256 363.668 209.989 314.934 211.552 281.952C212.425 263.481 211.369 245.109 211.256 226.653C211.158 210.957 211.496 194.896 208.411 179.44C207.073 172.762 203.411 163.224 195.495 168.972C189.256 173.509 185.115 181.962 181.242 188.387C176.058 196.981 170.777 205.561 165.861 214.325C156.326 231.316 149.157 252.323 159.34 270.695C165.946 282.614 175.594 295.224 186.397 303.578C199.735 313.891 199.552 282.727 199.65 276.697C199.833 265.228 198.918 253.717 197.538 242.348C196.524 234.021 195.58 224.779 192.045 217.044C191.876 216.663 191.439 216.551 191.073 216.706C176.143 222.75 168.467 246.123 163.678 259.917C157.833 276.795 157.171 295.59 157.34 313.257C157.481 327.98 157.523 348.114 167.805 359.92C176.678 370.12 184.918 332.038 185.58 328.868C190.693 304.494 184.777 279.021 172.777 257.62C161.241 237.036 147.467 217.917 140.452 195.107C136.734 183.033 136.058 170.339 139.227 158.096C142.213 146.5 151.34 130.397 163.537 126.621C179.551 121.676 193.566 141.936 199.059 153.925C202.143 160.646 203.918 168.226 202.96 175.608C202.467 179.469 200.552 182.822 197.664 185.372C192.791 189.669 184.749 185.301 179.185 187.119C160.706 193.177 144.79 212.155 132.973 227.061C109.255 257 104.48 297.731 115.86 333.799C117.959 340.449 124.649 351.72 132.185 343.154C141.41 332.644 143.255 316.329 145.748 302.987C150.621 276.936 157.227 248.279 153.988 221.693C153.41 216.973 151.086 208.013 144.396 210.591C128.889 216.551 121.41 238.656 117.198 252.872C111.522 272.047 111.748 291.786 113.255 311.51C114.48 327.501 115.677 350.551 127.41 362.977C127.72 363.316 128.283 363.33 128.565 362.921C134.283 354.468 136.734 344.352 139.185 334.56C142.621 320.823 146.143 307.115 149.65 293.392C156.41 266.933 163.678 239.938 165.833 212.62C167.044 197.277 166.748 177.679 154.593 166.422C145.833 158.307 132.931 160.223 122.565 163.323C109.987 167.07 94.7474 172.974 87.1839 184.4C79.3387 196.248 92.0009 204.491 100.902 209.379C105.931 212.141 109.508 215.79 111.043 221.482C112.029 225.131 104.114 228.315 101.663 229.738C97.3531 232.232 92.9868 234.458 89.6769 238.262C78.9444 250.618 88.3811 277.218 91.3952 290.306C97.4235 316.427 105.353 343.478 117.48 367.472C120.931 374.305 125.579 382.956 121.452 390.662C119.044 395.171 113.551 397.622 109.072 399.524C100.888 402.99 90.4938 404.878 81.5923 404.145C72.5076 403.413 63.8315 401.722 59.099 392.902C52.2256 380.11 65.3808 365.978 73.1133 356.975C78.9303 350.213 83.212 341.999 88.4234 334.743C91.4516 330.53 94.8178 326.543 98.8601 323.275C105.748 317.695 105.945 333.207 106.903 337.378C110.903 354.82 126.818 357.37 140.945 349.734C158.748 340.111 162.34 316.78 162.157 298.492C161.96 280.374 155.931 264.284 146.086 249.392C137.466 236.332 127.734 221.454 114.649 212.437C103.48 204.758 99.339 220.101 98.2263 228.653C97.3249 235.613 95.4094 264.904 107.395 263.777C112.396 263.312 116.987 256.422 119.776 252.943C125.72 245.546 132.199 237.529 136.34 228.991C140.579 220.256 142.199 211.718 140.959 202.067C140.255 196.573 138.1 191.162 135.748 186.217C133.607 181.709 123.255 172.185 125.297 167.535C129.889 157.025 150.368 121.267 165.312 129.143C172.185 132.764 171.875 146.669 171.903 153.009C171.96 162.984 170.565 172.988 169.002 182.808C166.326 199.531 162.537 216.311 157.298 232.429C155.396 238.276 153.086 243.982 150.452 249.533C149.988 250.505 139.41 267.186 138.142 264.073C134.227 254.464 129.579 245.01 123.987 236.261C116.382 224.356 108.395 228.794 100.114 238.177C89.7614 249.885 76.5781 271.075 57.5778 266.158C44.1833 262.692 49.5777 240.234 53.0426 231.71C57.4933 220.735 65.8597 210.957 75.2401 203.871C82.9303 198.066 94.015 196.84 101.438 203.927C107.579 209.788 106.903 220.538 106.212 228.174C104.649 245.363 98.6066 261.917 94.7897 278.669C90.1276 299.112 91.9305 321.161 95.2967 341.633C98.5784 361.498 104.395 382.124 115.382 399.186C117.227 402.046 128.156 417.389 132.072 408.118C136.931 396.636 133.044 380.194 131.509 368.359C127.692 338.913 122.987 309.467 117.367 280.317C117.241 279.627 116.213 279.486 115.973 280.191C110.494 296.759 104.128 321.542 87.7614 330.657C75.8739 337.279 65.1132 322.274 60.0849 313.751C53.9721 303.423 50.7045 291.673 48.2397 280.022C46.7889 273.146 44.0143 245.32 59.2962 253.534C66.3104 257.296 70.7048 266.905 74.2401 273.555C81.7895 287.728 87.198 302.902 93.3389 317.71C93.7051 318.583 94.9728 317.949 94.6488 317.09C90.2121 305.213 87.4374 291.391 78.6908 281.783C78.3528 281.416 77.8457 281.473 77.55 281.839C70.1414 290.433 67.8174 303.254 65.9442 314.103C63.8174 326.374 62.4652 341.041 67.2963 352.89C67.4935 353.355 68.2963 353.467 68.5498 352.988C73.0288 344.577 72.4372 335.053 72.1696 325.783C71.9161 316.766 72.0147 307.749 71.7752 298.732C71.24 278.542 70.4231 258.099 73.3386 238.05C73.9724 233.669 75.0006 229.372 76.4654 225.187C77.719 221.595 78.4936 217.847 81.9162 221.411C86.8459 226.54 89.1417 234.599 91.0009 241.235C95.015 255.535 96.8179 271.272 95.5784 286.08C95.3108 289.193 94.2404 300.07 88.9727 296.449C80.6627 290.729 77.1133 275.696 75.0006 266.693C72.4795 255.943 71.8316 244.616 73.6908 233.725C75.2542 224.553 77.5922 231.584 78.6063 236.261C79.6768 241.192 79.0148 246.49 78.3387 251.421C77.0711 260.677 74.0429 269.765 70.4935 278.373C68.9724 282.05 67.1695 285.615 65.085 289.01C62.3244 293.476 61.423 290.518 59.8596 286.7C56.5919 278.739 55.8454 269.384 55.5778 260.875C55.3384 253.858 54.9017 240.784 61.6906 236.402C66.5498 233.26 62.5357 250.843 62.3385 251.534C61.7328 253.661 60.9582 255.732 60.1272 257.775C57.8454 263.453 59.0567 256.634 59.0426 253.464C59.0426 252.534 57.5919 252.393 57.5919 253.323" fill="#1D1D1B"/>
<path d="M130.607 462.375C131.438 462.206 132.636 462.107 133.776 462.107C135.551 462.107 136.692 462.431 137.481 463.15C138.129 463.728 138.495 464.601 138.495 465.587C138.495 467.278 137.424 468.405 136.086 468.856V468.912C137.072 469.251 137.664 470.166 137.974 471.505C138.396 473.294 138.692 474.534 138.96 475.027H137.241C137.03 474.661 136.748 473.562 136.382 471.97C136.002 470.194 135.312 469.532 133.819 469.476H132.255V475.027H130.607V462.375V462.375ZM132.255 468.222H133.946C135.72 468.222 136.833 467.25 136.833 465.785C136.833 464.122 135.636 463.404 133.889 463.389C133.086 463.389 132.523 463.46 132.255 463.544V468.222Z" fill="#1D1D1B"/>
<path d="M141.636 470.73C141.678 472.998 143.114 473.928 144.79 473.928C145.988 473.928 146.706 473.717 147.34 473.449L147.622 474.647C147.03 474.915 146.03 475.224 144.565 475.224C141.734 475.224 140.044 473.365 140.044 470.589C140.044 467.814 141.678 465.63 144.368 465.63C147.368 465.63 148.171 468.279 148.171 469.969C148.171 470.307 148.129 470.575 148.114 470.744H141.65L141.636 470.73ZM146.537 469.533C146.551 468.462 146.1 466.813 144.213 466.813C142.523 466.813 141.776 468.377 141.65 469.533H146.537Z" fill="#1D1D1B"/>
<path d="M149.833 473.308C150.326 473.632 151.199 473.97 152.044 473.97C153.255 473.97 153.833 473.365 153.833 472.604C153.833 471.801 153.354 471.364 152.114 470.913C150.467 470.321 149.678 469.406 149.678 468.307C149.678 466.827 150.875 465.602 152.847 465.602C153.776 465.602 154.593 465.869 155.114 466.179L154.692 467.391C154.326 467.165 153.664 466.856 152.805 466.856C151.819 466.856 151.269 467.433 151.269 468.109C151.269 468.87 151.819 469.208 153.016 469.673C154.607 470.279 155.438 471.082 155.438 472.449C155.438 474.069 154.185 475.21 152.002 475.21C150.988 475.21 150.058 474.971 149.41 474.576L149.833 473.294V473.308Z" fill="#1D1D1B"/>
<path d="M158.453 470.73C158.495 472.998 159.932 473.928 161.608 473.928C162.805 473.928 163.523 473.717 164.157 473.449L164.439 474.647C163.847 474.915 162.847 475.224 161.383 475.224C158.551 475.224 156.861 473.365 156.861 470.589C156.861 467.814 158.495 465.63 161.185 465.63C164.185 465.63 164.988 468.279 164.988 469.969C164.988 470.307 164.946 470.575 164.932 470.744H158.467L158.453 470.73ZM163.354 469.533C163.368 468.462 162.918 466.813 161.03 466.813C159.34 466.813 158.594 468.377 158.467 469.533H163.354Z" fill="#1D1D1B"/>
<path d="M171.974 475.027L171.847 473.872H171.791C171.284 474.59 170.284 475.239 168.974 475.239C167.115 475.239 166.157 473.928 166.157 472.59C166.157 470.364 168.129 469.152 171.693 469.166V468.983C171.693 468.222 171.481 466.856 169.594 466.856C168.735 466.856 167.847 467.123 167.2 467.546L166.819 466.447C167.58 465.954 168.678 465.63 169.847 465.63C172.664 465.63 173.34 467.546 173.34 469.392V472.829C173.34 473.632 173.383 474.407 173.495 475.041H171.974V475.027ZM171.721 470.321C169.89 470.279 167.819 470.603 167.819 472.393C167.819 473.477 168.538 473.985 169.397 473.985C170.594 473.985 171.354 473.224 171.622 472.449C171.678 472.28 171.721 472.083 171.721 471.914V470.321V470.321Z" fill="#1D1D1B"/>
<path d="M175.833 468.687C175.833 467.602 175.819 466.672 175.763 465.813H177.228L177.284 467.616H177.354C177.777 466.376 178.777 465.602 179.904 465.602C180.101 465.602 180.228 465.616 180.382 465.658V467.236C180.213 467.194 180.044 467.18 179.805 467.18C178.622 467.18 177.791 468.067 177.566 469.335C177.523 469.561 177.495 469.828 177.495 470.11V475.013H175.847V468.673L175.833 468.687Z" fill="#1D1D1B"/>
<path d="M188.341 474.675C187.904 474.9 186.932 475.21 185.693 475.21C182.918 475.21 181.115 473.322 181.115 470.519C181.115 467.715 183.059 465.63 186.059 465.63C187.045 465.63 187.918 465.883 188.383 466.109L188.003 467.405C187.608 467.18 186.974 466.968 186.059 466.968C183.946 466.968 182.805 468.532 182.805 470.448C182.805 472.576 184.172 473.886 186.003 473.886C186.946 473.886 187.58 473.646 188.059 473.435L188.341 474.689V474.675Z" fill="#1D1D1B"/>
<path d="M190.045 461.516H191.721V467.264H191.763C192.031 466.785 192.453 466.376 192.96 466.08C193.453 465.799 194.045 465.601 194.679 465.601C195.918 465.601 197.89 466.362 197.89 469.546V475.027H196.214V469.744C196.214 468.264 195.665 467.01 194.087 467.01C193.003 467.01 192.144 467.771 191.848 468.687C191.749 468.912 191.735 469.166 191.735 469.49V475.041H190.059V461.53L190.045 461.516Z" fill="#1D1D1B"/>
<path d="M135.607 79.6904V87.2703C135.607 90.1444 136.874 91.3561 138.593 91.3561C140.494 91.3561 141.705 90.1022 141.705 87.2703V79.6904H143.382V87.1576C143.382 91.0884 141.311 92.7086 138.536 92.7086C135.917 92.7086 133.931 91.2011 133.931 87.228V79.6904H135.607Z" fill="#1D1D1B"/>
<path d="M145.931 85.791C145.931 84.8471 145.917 84.0581 145.86 83.2973H147.339L147.438 84.8189H147.48C147.931 83.9454 149.001 83.0859 150.522 83.0859C151.79 83.0859 153.776 83.8467 153.776 87.0027V92.4974H152.1V87.1858C152.1 85.7065 151.551 84.4667 149.973 84.4667C148.874 84.4667 148.015 85.2416 147.734 86.1855C147.663 86.3968 147.621 86.6786 147.621 86.9604V92.4974H145.945V85.791H145.931Z" fill="#1D1D1B"/>
<path d="M162.932 92.1588C162.495 92.3842 161.523 92.6942 160.284 92.6942C157.509 92.6942 155.706 90.8063 155.706 87.9885C155.706 85.1707 157.65 83.0996 160.65 83.0996C161.636 83.0996 162.509 83.3532 162.974 83.5786L162.593 84.8748C162.199 84.6494 161.565 84.4381 160.65 84.4381C158.537 84.4381 157.396 86.0019 157.396 87.918C157.396 90.0455 158.762 91.3557 160.593 91.3557C161.537 91.3557 162.171 91.1021 162.65 90.9049L162.932 92.1588V92.1588Z" fill="#1D1D1B"/>
<path d="M165.438 88.2139C165.481 90.4822 166.917 91.4121 168.593 91.4121C169.79 91.4121 170.509 91.2008 171.143 90.9331L171.424 92.1306C170.833 92.3983 169.833 92.7083 168.368 92.7083C165.537 92.7083 163.847 90.8485 163.847 88.0589C163.847 85.2693 165.481 83.0996 168.171 83.0996C171.171 83.0996 171.974 85.7483 171.974 87.439C171.974 87.7771 171.931 88.0448 171.917 88.2139H165.452H165.438ZM170.34 87.0163C170.354 85.9456 169.903 84.2972 168.016 84.2972C166.326 84.2972 165.579 85.861 165.452 87.0163H170.34Z" fill="#1D1D1B"/>
<path d="M173.903 86.1714C173.903 85.0866 173.889 84.1567 173.833 83.2973H175.298L175.354 85.1007H175.425C175.847 83.8608 176.847 83.0859 177.974 83.0859C178.171 83.0859 178.298 83.1 178.453 83.1423V84.7203C178.284 84.678 178.115 84.6639 177.875 84.6639C176.692 84.6639 175.861 85.5515 175.636 86.8195C175.594 87.0449 175.565 87.3126 175.565 87.5944V92.4974H173.918V86.1714H173.903Z" fill="#1D1D1B"/>
<path d="M182.509 80.6484V83.2972H184.903V84.5652H182.509V89.5245C182.509 90.6657 182.832 91.3138 183.762 91.3138C184.199 91.3138 184.523 91.2574 184.734 91.2011L184.804 92.455C184.48 92.5818 183.973 92.6804 183.325 92.6804C182.551 92.6804 181.917 92.4268 181.523 91.976C181.044 91.4829 180.875 90.6657 180.875 89.5808V84.5793H179.452V83.3113H180.875V81.0993L182.509 80.6625V80.6484Z" fill="#1D1D1B"/>
<path d="M191.861 92.511L191.734 91.3557H191.678C191.171 92.0743 190.171 92.7224 188.861 92.7224C187.002 92.7224 186.044 91.4121 186.044 90.0737C186.044 87.8476 188.016 86.6359 191.579 86.65V86.4528C191.579 85.692 191.368 84.3253 189.481 84.3253C188.621 84.3253 187.734 84.593 187.086 85.0157L186.706 83.9168C187.467 83.4237 188.565 83.0996 189.734 83.0996C192.551 83.0996 193.227 85.0157 193.227 86.8614V90.2991C193.227 91.1021 193.269 91.877 193.382 92.511H191.861V92.511ZM191.607 87.8053C189.776 87.7631 187.706 88.0871 187.706 89.8764C187.706 90.9613 188.424 91.4685 189.283 91.4685C190.481 91.4685 191.241 90.7077 191.509 89.9328C191.565 89.7637 191.607 89.5664 191.607 89.3974V87.8053Z" fill="#1D1D1B"/>
<path d="M197.593 80.7193C197.607 81.297 197.199 81.7478 196.523 81.7478C195.931 81.7478 195.509 81.297 195.509 80.7193C195.509 80.1417 195.945 79.6768 196.551 79.6768C197.157 79.6768 197.579 80.1276 197.579 80.7193H197.593ZM195.734 92.5118V83.2976H197.41V92.5118H195.734Z" fill="#1D1D1B"/>
<path d="M199.945 85.791C199.945 84.8471 199.931 84.0581 199.875 83.2973H201.354L201.452 84.8189H201.495C201.945 83.9454 203.016 83.0859 204.537 83.0859C205.805 83.0859 207.791 83.8467 207.791 87.0027V92.4974H206.115V87.1858C206.115 85.7065 205.565 84.4667 203.988 84.4667C202.889 84.4667 202.03 85.2416 201.748 86.1855C201.678 86.3968 201.636 86.6786 201.636 86.9604V92.4974H199.96V85.791H199.945Z" fill="#1D1D1B"/>
<path d="M212.214 80.6484V83.2972H214.608V84.5652H212.214V89.5245C212.214 90.6657 212.538 91.3138 213.467 91.3138C213.904 91.3138 214.228 91.2574 214.439 91.2011L214.509 92.455C214.185 92.5818 213.678 92.6804 213.031 92.6804C212.256 92.6804 211.622 92.4268 211.228 91.976C210.749 91.4829 210.58 90.6657 210.58 89.5808V84.5793H209.157V83.3113H210.58V81.0993L212.214 80.6625V80.6484Z" fill="#1D1D1B"/>
<path d="M217.453 83.2969L219.467 88.7352C219.678 89.341 219.903 90.0737 220.058 90.6231H220.101C220.27 90.0737 220.467 89.3692 220.692 88.707L222.523 83.2969H224.298L221.791 89.8623C220.594 93.0183 219.777 94.6385 218.636 95.6247C217.819 96.3433 217.002 96.6391 216.579 96.7096L216.157 95.3007C216.579 95.1739 217.129 94.9062 217.622 94.4835C218.072 94.1172 218.65 93.4691 219.03 92.6238C219.101 92.4547 219.157 92.3138 219.157 92.2293C219.157 92.1447 219.115 92.0039 219.044 91.7925L215.636 83.311H217.467L217.453 83.2969Z" fill="#1D1D1B"/>
<path d="M228.425 93.2726L233.735 79.4795H235.031L229.707 93.2726H228.439H228.425Z" fill="#1D1D1B"/>
<path d="M240.383 86.3119C240.383 85.1284 240.341 84.1845 240.312 83.3109H241.82L241.89 84.8889H241.932C242.622 83.7618 243.707 83.0996 245.2 83.0996C247.425 83.0996 249.101 84.9875 249.101 87.7771C249.101 91.0881 247.087 92.7224 244.918 92.7224C243.707 92.7224 242.636 92.187 242.087 91.2712H242.045V96.2728H240.397V86.3119H240.383ZM242.031 88.7634C242.031 89.017 242.073 89.2424 242.101 89.4537C242.411 90.609 243.411 91.4121 244.608 91.4121C246.383 91.4121 247.411 89.9609 247.411 87.8476C247.411 86.0019 246.439 84.424 244.679 84.424C243.538 84.424 242.467 85.2411 242.143 86.4951C242.087 86.7064 242.031 86.9459 242.031 87.1854V88.7634V88.7634Z" fill="#1D1D1B"/>
<path d="M256.27 92.511L256.143 91.3557H256.087C255.58 92.0743 254.58 92.7224 253.27 92.7224C251.411 92.7224 250.453 91.4121 250.453 90.0737C250.453 87.8476 252.425 86.6359 255.988 86.65V86.4528C255.988 85.692 255.777 84.3253 253.89 84.3253C253.031 84.3253 252.143 84.593 251.495 85.0157L251.115 83.9168C251.876 83.4237 252.974 83.0996 254.143 83.0996C256.96 83.0996 257.636 85.0157 257.636 86.8614V90.2991C257.636 91.1021 257.679 91.877 257.791 92.511H256.27ZM256.017 87.8053C254.186 87.7631 252.115 88.0871 252.115 89.8764C252.115 90.9613 252.833 91.4685 253.693 91.4685C254.89 91.4685 255.65 90.7077 255.918 89.9328C255.974 89.7637 256.017 89.5664 256.017 89.3974V87.8053Z" fill="#1D1D1B"/>
<path d="M262.059 80.6484V83.2972H264.454V84.5652H262.059V89.5245C262.059 90.6657 262.383 91.3138 263.313 91.3138C263.749 91.3138 264.073 91.2574 264.285 91.2011L264.355 92.455C264.031 92.5818 263.524 92.6804 262.876 92.6804C262.102 92.6804 261.468 92.4268 261.073 91.976C260.595 91.4829 260.425 90.6657 260.425 89.5808V84.5793H259.003V83.3113H260.425V81.0993L262.059 80.6625V80.6484Z" fill="#1D1D1B"/>
<path d="M268.651 80.6484V83.2972H271.046V84.5652H268.651V89.5245C268.651 90.6657 268.975 91.3138 269.905 91.3138C270.341 91.3138 270.665 91.2574 270.876 91.2011L270.947 92.455C270.623 92.5818 270.116 92.6804 269.468 92.6804C268.693 92.6804 268.06 92.4268 267.665 91.976C267.186 91.4829 267.017 90.6657 267.017 89.5808V84.5793H265.595V83.3113H267.017V81.0993L268.651 80.6625V80.6484Z" fill="#1D1D1B"/>
<path d="M273.524 88.2139C273.566 90.4822 275.003 91.4121 276.679 91.4121C277.876 91.4121 278.595 91.2008 279.228 90.9331L279.51 92.1306C278.919 92.3983 277.919 92.7083 276.454 92.7083C273.623 92.7083 271.933 90.8485 271.933 88.0589C271.933 85.2693 273.566 83.0996 276.257 83.0996C279.257 83.0996 280.06 85.7483 280.06 87.439C280.06 87.7771 280.017 88.0448 280.003 88.2139H273.538H273.524ZM278.426 87.0163C278.44 85.9456 277.989 84.2972 276.102 84.2972C274.412 84.2972 273.665 85.861 273.538 87.0163H278.426Z" fill="#1D1D1B"/>
<path d="M281.989 86.1714C281.989 85.0866 281.975 84.1567 281.919 83.2973H283.384L283.44 85.1007H283.511C283.933 83.8608 284.933 83.0859 286.06 83.0859C286.257 83.0859 286.384 83.1 286.539 83.1423V84.7203C286.37 84.678 286.201 84.6639 285.961 84.6639C284.778 84.6639 283.947 85.5515 283.722 86.8195C283.68 87.0449 283.651 87.3126 283.651 87.5944V92.4974H282.003V86.1714H281.989Z" fill="#1D1D1B"/>
<path d="M288.116 85.791C288.116 84.8471 288.102 84.0581 288.046 83.2973H289.525L289.623 84.8189H289.666C290.116 83.9454 291.187 83.0859 292.708 83.0859C293.976 83.0859 295.962 83.8467 295.962 87.0027V92.4974H294.285V87.1858C294.285 85.7065 293.736 84.4667 292.159 84.4667C291.06 84.4667 290.201 85.2416 289.919 86.1855C289.849 86.3968 289.806 86.6786 289.806 86.9604V92.4974H288.13V85.791H288.116Z" fill="#1D1D1B"/>
<path d="M298.173 90.7926C298.665 91.1167 299.539 91.4548 300.384 91.4548C301.595 91.4548 302.173 90.849 302.173 90.0882C302.173 89.2851 301.694 88.8483 300.454 88.3975C298.806 87.8057 298.018 86.89 298.018 85.791C298.018 84.3117 299.215 83.0859 301.187 83.0859C302.116 83.0859 302.933 83.3536 303.454 83.6636L303.032 84.8752C302.666 84.6498 302.004 84.3399 301.144 84.3399C300.158 84.3399 299.609 84.9175 299.609 85.5938C299.609 86.3546 300.158 86.6927 301.356 87.1577C302.947 87.7635 303.778 88.5665 303.778 89.9332C303.778 91.5534 302.525 92.6946 300.342 92.6946C299.327 92.6946 298.398 92.441 297.75 92.0606L298.173 90.7926V90.7926Z" fill="#1D1D1B"/>
<path d="M308.553 93.2726L313.863 79.4795H315.158L309.834 93.2726H308.567H308.553Z" fill="#1D1D1B"/>
<path d="M322.384 80.7193C322.398 81.297 321.99 81.7478 321.314 81.7478C320.722 81.7478 320.3 81.297 320.3 80.7193C320.3 80.1417 320.736 79.6768 321.342 79.6768C321.948 79.6768 322.37 80.1276 322.37 80.7193H322.384ZM320.525 92.5118V83.2976H322.201V92.5118H320.525Z" fill="#1D1D1B"/>
<path d="M324.736 85.791C324.736 84.8471 324.722 84.0581 324.666 83.2973H326.145L326.243 84.8189H326.286C326.736 83.9454 327.807 83.0859 329.328 83.0859C330.596 83.0859 332.582 83.8467 332.582 87.0027V92.4974H330.906V87.1858C330.906 85.7065 330.356 84.4667 328.779 84.4667C327.68 84.4667 326.821 85.2416 326.539 86.1855C326.469 86.3968 326.427 86.6786 326.427 86.9604V92.4974H324.751V85.791H324.736Z" fill="#1D1D1B"/>
<path d="M334.793 90.7926C335.286 91.1167 336.159 91.4548 337.004 91.4548C338.215 91.4548 338.793 90.849 338.793 90.0882C338.793 89.2851 338.314 88.8483 337.074 88.3975C335.426 87.8057 334.638 86.89 334.638 85.791C334.638 84.3117 335.835 83.0859 337.807 83.0859C338.736 83.0859 339.553 83.3536 340.074 83.6636L339.652 84.8752C339.286 84.6498 338.624 84.3399 337.765 84.3399C336.779 84.3399 336.229 84.9175 336.229 85.5938C336.229 86.3546 336.779 86.6927 337.976 87.1577C339.567 87.7635 340.398 88.5665 340.398 89.9332C340.398 91.5534 339.145 92.6946 336.962 92.6946C335.948 92.6946 335.018 92.441 334.37 92.0606L334.793 90.7926V90.7926Z" fill="#1D1D1B"/>
<path d="M344.145 80.7193C344.159 81.297 343.751 81.7478 343.075 81.7478C342.483 81.7478 342.061 81.297 342.061 80.7193C342.061 80.1417 342.497 79.6768 343.103 79.6768C343.708 79.6768 344.131 80.1276 344.131 80.7193H344.145ZM342.286 92.5118V83.2976H343.962V92.5118H342.286Z" fill="#1D1D1B"/>
<path d="M354.498 83.2967C354.455 83.9589 354.427 84.7056 354.427 85.8327V91.1724C354.427 93.2858 354.005 94.582 353.117 95.371C352.23 96.2022 350.934 96.4699 349.765 96.4699C348.596 96.4699 347.441 96.2022 346.709 95.7091L347.131 94.4411C347.737 94.8215 348.695 95.1596 349.835 95.1596C351.554 95.1596 352.807 94.272 352.807 91.9473V90.9188H352.765C352.258 91.7783 351.258 92.4545 349.835 92.4545C347.554 92.4545 345.92 90.5103 345.92 87.9602C345.92 84.8465 347.948 83.0713 350.061 83.0713C351.652 83.0713 352.54 83.9025 352.934 84.6633H352.976L353.047 83.2685H354.512L354.498 83.2967ZM352.765 86.9317C352.765 86.6499 352.751 86.3963 352.666 86.1709C352.357 85.1987 351.54 84.3957 350.328 84.3957C348.737 84.3957 347.596 85.7482 347.596 87.8756C347.596 89.679 348.512 91.1865 350.314 91.1865C351.343 91.1865 352.272 90.5384 352.638 89.4677C352.737 89.1859 352.765 88.8619 352.765 88.5801V86.9317V86.9317Z" fill="#1D1D1B"/>
<path d="M356.99 79H358.666V84.7483H358.709C358.976 84.2693 359.399 83.8607 359.906 83.5648C360.399 83.283 360.99 83.0858 361.624 83.0858C362.864 83.0858 364.835 83.8466 364.835 87.0307V92.5113H363.159V87.228C363.159 85.7486 362.61 84.4947 361.033 84.4947C359.948 84.4947 359.089 85.2555 358.793 86.1713C358.694 86.3967 358.68 86.6503 358.68 86.9744V92.5254H357.004V79H356.99Z" fill="#1D1D1B"/>
<path d="M369.244 80.6484V83.2972H371.638V84.5652H369.244V89.5245C369.244 90.6657 369.568 91.3138 370.497 91.3138C370.934 91.3138 371.258 91.2574 371.469 91.2011L371.54 92.455C371.216 92.5818 370.709 92.6804 370.061 92.6804C369.286 92.6804 368.652 92.4268 368.258 91.976C367.779 91.4829 367.61 90.6657 367.61 89.5808V84.5793H366.188V83.3113H367.61V81.0993L369.244 80.6625V80.6484Z" fill="#1D1D1B"/>
<path d="M373.314 90.7926C373.807 91.1167 374.68 91.4548 375.525 91.4548C376.737 91.4548 377.314 90.849 377.314 90.0882C377.314 89.2851 376.835 88.8483 375.596 88.3975C373.948 87.8057 373.159 86.89 373.159 85.791C373.159 84.3117 374.356 83.0859 376.328 83.0859C377.258 83.0859 378.075 83.3536 378.596 83.6636L378.173 84.8752C377.807 84.6498 377.145 84.3399 376.286 84.3399C375.3 84.3399 374.751 84.9175 374.751 85.5938C374.751 86.3546 375.3 86.6927 376.497 87.1577C378.089 87.7635 378.92 88.5665 378.92 89.9332C378.92 91.5534 377.666 92.6946 375.483 92.6946C374.469 92.6946 373.539 92.441 372.892 92.0606L373.314 90.7926V90.7926Z" fill="#1D1D1B"/>
<path d="M744.644 92.0891C744.039 92.3991 742.813 92.6949 741.264 92.6949C737.644 92.6949 734.926 90.4125 734.926 86.214C734.926 82.0155 737.644 79.4795 741.616 79.4795C743.208 79.4795 744.222 79.8176 744.658 80.0571L744.264 81.4097C743.63 81.0997 742.743 80.8743 741.672 80.8743C738.672 80.8743 736.672 82.7904 736.672 86.1577C736.672 89.2995 738.475 91.3142 741.602 91.3142C742.616 91.3142 743.644 91.1029 744.306 90.7788L744.644 92.0891V92.0891Z" fill="#1D1D1B"/>
<path d="M746.349 79H748.025V92.5113H746.349V79Z" fill="#1D1D1B"/>
<path d="M755.729 92.511L755.602 91.3557H755.546C755.039 92.0743 754.039 92.7224 752.729 92.7224C750.87 92.7224 749.912 91.4121 749.912 90.0737C749.912 87.8476 751.884 86.6359 755.447 86.65V86.4528C755.447 85.692 755.236 84.3253 753.349 84.3253C752.49 84.3253 751.602 84.593 750.954 85.0157L750.574 83.9168C751.335 83.4237 752.433 83.0996 753.602 83.0996C756.419 83.0996 757.095 85.0157 757.095 86.8614V90.2991C757.095 91.1021 757.138 91.877 757.25 92.511H755.729V92.511ZM755.49 87.8053C753.659 87.7631 751.588 88.0871 751.588 89.8764C751.588 90.9613 752.307 91.4685 753.166 91.4685C754.363 91.4685 755.123 90.7077 755.391 89.9328C755.447 89.7637 755.49 89.5664 755.49 89.3974V87.8053Z" fill="#1D1D1B"/>
<path d="M759.588 86.1714C759.588 85.0866 759.574 84.1567 759.518 83.2973H760.982L761.039 85.1007H761.109C761.532 83.8608 762.532 83.0859 763.658 83.0859C763.842 83.0859 763.982 83.1 764.137 83.1423V84.7203C763.968 84.678 763.799 84.6639 763.574 84.6639C762.391 84.6639 761.56 85.5515 761.335 86.8195C761.292 87.0449 761.264 87.3126 761.264 87.5944V92.4974H759.602V86.1714H759.588Z" fill="#1D1D1B"/>
<path d="M767.546 80.7193C767.561 81.297 767.152 81.7478 766.476 81.7478C765.884 81.7478 765.462 81.297 765.462 80.7193C765.462 80.1417 765.899 79.6768 766.504 79.6768C767.11 79.6768 767.532 80.1276 767.532 80.7193H767.546ZM765.687 92.5118V83.2976H767.363V92.5118H765.687Z" fill="#1D1D1B"/>
<path d="M771.997 80.6484V83.2972H774.391V84.5652H771.997V89.5245C771.997 90.6657 772.321 91.3138 773.25 91.3138C773.687 91.3138 774.011 91.2574 774.222 91.2011L774.293 92.455C773.969 92.5818 773.462 92.6804 772.814 92.6804C772.039 92.6804 771.405 92.4268 771.011 91.976C770.532 91.4829 770.363 90.6657 770.363 89.5808V84.5793H768.94V83.3113H770.363V81.0993L771.997 80.6625V80.6484Z" fill="#1D1D1B"/>
<path d="M777.25 83.2969L779.265 88.7352C779.476 89.341 779.701 90.0737 779.856 90.6231H779.898C780.067 90.0737 780.265 89.3692 780.49 88.707L782.321 83.2969H784.096L781.589 89.8623C780.391 93.0183 779.574 94.6385 778.434 95.6247C777.617 96.3433 776.8 96.6391 776.377 96.7096L775.955 95.3007C776.377 95.1739 776.927 94.9062 777.42 94.4835C777.87 94.1172 778.448 93.4691 778.828 92.6238C778.898 92.4547 778.955 92.3138 778.955 92.2293C778.955 92.1447 778.912 92.0039 778.842 91.7925L775.434 83.311H777.265L777.25 83.2969Z" fill="#1D1D1B"/>
<path d="M788.223 93.2726L793.533 79.4795H794.828L789.504 93.2726H788.223Z" fill="#1D1D1B"/>
<path d="M800.236 79.6904H807.138V81.0852H801.884V85.3401H806.729V86.7067H801.884V92.5114H800.236V79.6904Z" fill="#1D1D1B"/>
<path d="M817.406 87.8335C817.406 91.243 815.054 92.7224 812.828 92.7224C810.335 92.7224 808.42 90.8908 808.42 87.9885C808.42 84.903 810.434 83.0996 812.983 83.0996C815.533 83.0996 817.42 85.0157 817.42 87.8335H817.406ZM810.096 87.9321C810.096 89.9468 811.251 91.4685 812.899 91.4685C814.547 91.4685 815.702 89.9609 815.702 87.8899C815.702 86.326 814.927 84.3535 812.941 84.3535C810.955 84.3535 810.11 86.1851 810.11 87.9321H810.096Z" fill="#1D1D1B"/>
<path d="M826.082 92.1588C825.645 92.3842 824.673 92.6942 823.434 92.6942C820.659 92.6942 818.856 90.8063 818.856 87.9885C818.856 85.1707 820.8 83.0996 823.8 83.0996C824.786 83.0996 825.659 83.3532 826.124 83.5786L825.744 84.8748C825.35 84.6494 824.716 84.4381 823.8 84.4381C821.687 84.4381 820.547 86.0019 820.547 87.918C820.547 90.0455 821.913 91.3557 823.744 91.3557C824.702 91.3557 825.321 91.1021 825.8 90.9049L826.082 92.1588V92.1588Z" fill="#1D1D1B"/>
<path d="M835.505 90.0032C835.505 90.9613 835.519 91.7925 835.575 92.5111H834.096L833.998 91.0035H833.956C833.519 91.7503 832.547 92.7224 830.913 92.7224C829.462 92.7224 827.744 91.9193 827.744 88.693V83.2969H829.42V88.3971C829.42 90.1441 829.955 91.3276 831.477 91.3276C832.603 91.3276 833.378 90.5527 833.688 89.806C833.787 89.5524 833.843 89.2565 833.843 88.9466V83.2969H835.519V90.0032H835.505Z" fill="#1D1D1B"/>
<path d="M837.829 90.7926C838.322 91.1167 839.195 91.4548 840.04 91.4548C841.251 91.4548 841.829 90.849 841.829 90.0882C841.829 89.2851 841.35 88.8483 840.125 88.3975C838.477 87.8057 837.688 86.89 837.688 85.791C837.688 84.3117 838.885 83.0859 840.857 83.0859C841.787 83.0859 842.604 83.3536 843.125 83.6636L842.702 84.8752C842.336 84.6498 841.674 84.3399 840.815 84.3399C839.829 84.3399 839.279 84.9175 839.279 85.5938C839.279 86.3546 839.829 86.6927 841.026 87.1577C842.618 87.7635 843.434 88.5665 843.434 89.9332C843.434 91.5534 842.181 92.6946 839.998 92.6946C838.984 92.6946 838.054 92.441 837.406 92.0606L837.829 90.7926V90.7926Z" fill="#1D1D1B"/>
<path d="M467.443 474.604C466.837 474.914 465.612 475.21 464.063 475.21C460.443 475.21 457.725 472.927 457.725 468.729C457.725 464.53 460.443 461.994 464.415 461.994C466.006 461.994 467.021 462.332 467.457 462.572L467.063 463.924C466.429 463.614 465.542 463.389 464.471 463.389C461.471 463.389 459.471 465.305 459.471 468.672C459.471 471.814 461.274 473.829 464.401 473.829C465.415 473.829 466.429 473.618 467.105 473.293L467.443 474.604V474.604Z" fill="#1D1D1B"/>
<path d="M477.359 470.349C477.359 473.759 475.007 475.238 472.782 475.238C470.289 475.238 468.373 473.406 468.373 470.504C468.373 467.419 470.387 465.615 472.937 465.615C475.486 465.615 477.373 467.531 477.373 470.349H477.359ZM470.049 470.448C470.049 472.462 471.204 473.984 472.852 473.984C474.5 473.984 475.641 472.477 475.641 470.405C475.641 468.842 474.866 466.869 472.88 466.869C470.894 466.869 470.049 468.701 470.049 470.448V470.448Z" fill="#1D1D1B"/>
<path d="M479.359 468.306C479.359 467.348 479.344 466.573 479.288 465.812H480.767L480.866 467.334H480.908C481.359 466.46 482.429 465.601 483.95 465.601C485.218 465.601 487.204 466.361 487.204 469.517V475.012H485.528V469.7C485.528 468.221 484.978 466.981 483.401 466.981C482.302 466.981 481.443 467.756 481.161 468.686C481.091 468.897 481.049 469.179 481.049 469.461V474.998H479.373V468.277L479.359 468.306Z" fill="#1D1D1B"/>
<path d="M496.359 474.674C495.923 474.899 494.951 475.209 493.711 475.209C490.937 475.209 489.134 473.321 489.134 470.518C489.134 467.714 491.077 465.629 494.077 465.629C495.063 465.629 495.937 465.883 496.402 466.108L496.021 467.404C495.627 467.179 494.993 466.967 494.077 466.967C491.965 466.967 490.824 468.531 490.824 470.447C490.824 472.575 492.19 473.885 494.021 473.885C494.965 473.885 495.599 473.646 496.078 473.434L496.359 474.688V474.674Z" fill="#1D1D1B"/>
<path d="M498.866 470.729C498.908 472.997 500.345 473.927 502.021 473.927C503.218 473.927 503.936 473.716 504.57 473.448L504.852 474.646C504.26 474.914 503.26 475.223 501.796 475.223C498.965 475.223 497.274 473.364 497.274 470.588C497.274 467.813 498.908 465.629 501.598 465.629C504.598 465.629 505.401 468.278 505.401 469.968C505.401 470.306 505.359 470.574 505.345 470.743H498.88L498.866 470.729ZM503.767 469.532C503.782 468.461 503.331 466.812 501.443 466.812C499.753 466.812 499.007 468.376 498.88 469.532H503.767V469.532Z" fill="#1D1D1B"/>
<path d="M507.345 468.828C507.345 467.644 507.303 466.7 507.274 465.827H508.781L508.852 467.405H508.894C509.584 466.277 510.669 465.615 512.162 465.615C514.387 465.615 516.063 467.503 516.063 470.293C516.063 473.604 514.049 475.238 511.88 475.238C510.669 475.238 509.598 474.703 509.049 473.787H509.007V478.788H507.359V468.813L507.345 468.828ZM508.993 471.279C508.993 471.533 509.035 471.758 509.063 471.969C509.373 473.125 510.373 473.928 511.57 473.928C513.345 473.928 514.359 472.477 514.359 470.363C514.359 468.518 513.387 466.94 511.627 466.94C510.486 466.94 509.415 467.757 509.091 469.011C509.035 469.222 508.979 469.462 508.979 469.701V471.279H508.993Z" fill="#1D1D1B"/>
<path d="M520.021 463.163V465.812H522.416V467.094H520.021V472.053C520.021 473.194 520.345 473.843 521.275 473.843C521.711 473.843 522.035 473.786 522.247 473.73L522.317 474.984C521.993 475.111 521.486 475.209 520.838 475.209C520.063 475.209 519.43 474.97 519.035 474.505C518.556 474.012 518.387 473.194 518.387 472.11V467.094H516.965V465.812H518.387V463.6L520.021 463.163V463.163Z" fill="#1D1D1B"/>
<path d="M916.83 462.375C917.844 462.22 919.041 462.107 920.351 462.107C922.732 462.107 924.422 462.657 925.549 463.699C926.689 464.742 927.351 466.235 927.351 468.307C927.351 470.378 926.704 472.111 925.506 473.294C924.309 474.492 922.323 475.14 919.844 475.14C918.661 475.14 917.675 475.083 916.844 474.985V462.375H916.83ZM918.478 473.717C918.901 473.787 919.506 473.815 920.154 473.815C923.689 473.815 925.619 471.843 925.619 468.377C925.633 465.348 923.929 463.432 920.422 463.432C919.562 463.432 918.915 463.502 918.478 463.601V473.717Z" fill="#1D1D1B"/>
<path d="M930.366 470.73C930.408 472.998 931.845 473.928 933.521 473.928C934.718 473.928 935.436 473.717 936.07 473.449L936.352 474.647C935.76 474.915 934.76 475.224 933.296 475.224C930.465 475.224 928.774 473.365 928.774 470.589C928.774 467.814 930.408 465.63 933.098 465.63C936.098 465.63 936.901 468.279 936.901 469.969C936.901 470.307 936.859 470.575 936.845 470.744H930.38L930.366 470.73ZM935.267 469.533C935.282 468.462 934.831 466.813 932.943 466.813C931.253 466.813 930.507 468.377 930.38 469.533H935.267Z" fill="#1D1D1B"/>
<path d="M938.563 473.308C939.056 473.632 939.929 473.97 940.774 473.97C941.986 473.97 942.563 473.365 942.563 472.604C942.563 471.801 942.084 471.364 940.859 470.913C939.211 470.321 938.422 469.406 938.422 468.307C938.422 466.827 939.62 465.602 941.591 465.602C942.521 465.602 943.338 465.869 943.859 466.179L943.436 467.391C943.07 467.165 942.408 466.856 941.549 466.856C940.563 466.856 940.014 467.433 940.014 468.109C940.014 468.87 940.563 469.208 941.76 469.673C943.352 470.279 944.169 471.082 944.169 472.449C944.169 474.069 942.915 475.21 940.732 475.21C939.718 475.21 938.789 474.971 938.141 474.576L938.563 473.294V473.308Z" fill="#1D1D1B"/>
<path d="M947.916 463.235C947.93 463.799 947.521 464.263 946.845 464.263C946.254 464.263 945.831 463.813 945.831 463.235C945.831 462.657 946.268 462.192 946.873 462.192C947.479 462.192 947.901 462.643 947.901 463.235H947.916ZM946.056 475.027V465.813H947.732V475.027H946.056Z" fill="#1D1D1B"/>
<path d="M958.267 465.813C958.225 466.475 958.197 467.222 958.197 468.349V473.689C958.197 475.802 957.774 477.098 956.887 477.887C955.999 478.718 954.704 478.986 953.535 478.986C952.366 478.986 951.211 478.718 950.478 478.225L950.901 476.943C951.506 477.323 952.464 477.662 953.605 477.662C955.323 477.662 956.577 476.774 956.577 474.449V473.421H956.535C956.013 474.28 955.028 474.957 953.605 474.957C951.323 474.957 949.689 473.012 949.689 470.462C949.689 467.348 951.732 465.573 953.83 465.573C955.422 465.573 956.309 466.404 956.704 467.165H956.746L956.816 465.77H958.281L958.267 465.813ZM956.535 469.448C956.535 469.166 956.521 468.912 956.436 468.687C956.126 467.715 955.309 466.912 954.098 466.912C952.506 466.912 951.366 468.264 951.366 470.392C951.366 472.195 952.281 473.703 954.084 473.703C955.112 473.703 956.042 473.054 956.408 471.984C956.506 471.702 956.535 471.378 956.535 471.096V469.448V469.448Z" fill="#1D1D1B"/>
<path d="M960.775 468.307C960.775 467.349 960.76 466.574 960.704 465.813H962.183L962.282 467.335H962.324C962.775 466.461 963.845 465.602 965.366 465.602C966.648 465.602 968.62 466.362 968.62 469.518V475.013H966.944V469.701C966.944 468.222 966.394 466.982 964.817 466.982C963.718 466.982 962.859 467.757 962.577 468.687C962.507 468.898 962.465 469.18 962.465 469.462V474.999H960.789V468.278L960.775 468.307Z" fill="#1D1D1B"/>
<path d="M37.3945 116.603V107.798H508.007V116.603" stroke="#616160" stroke-width="0.56"/>
<path d="M522.796 116.603V107.798H978.606V116.603" stroke="#616160" stroke-width="0.56"/>
<path d="M213.284 469.18V395.213" stroke="#1D1D1B" stroke-width="0.75"/>
<path d="M537.05 469.18V334.982" stroke="#1D1D1B" stroke-width="0.75"/>
<path d="M977.761 469.18V320.189" stroke="#1D1D1B" stroke-width="0.75"/>
</g>
<defs>
<clipPath id="clip0_882_42">
<rect width="942" height="400" fill="white" transform="translate(37 79)"/>
</clipPath>
</defs>
</svg>
